<?xml version="1.0" encoding="UTF-8"?><svg id="a" xmlns="http://www.w3.org/2000/svg" viewBox="0 0 128 128"><defs><style>.b{fill:#6600FF;}</style></defs><path class="b" d="M68.13,26.22c-24.18-2.56-44.47,17.72-41.91,41.91,1.87,17.62,16.03,31.79,33.65,33.65,24.18,2.56,44.47-17.72,41.91-41.91-1.87-17.62-16.03-31.79-33.65-33.65Zm21.87,37.78c0,.48-.01,.96-.04,1.43-.16,2.94-3.44,4.64-5.99,3.17l-13.97-8.06v-16.12c0-2.95,3.11-4.94,5.74-3.6,8.45,4.3,14.26,13.07,14.26,23.19Zm-29.08,25.82c-11.81-1.37-21.32-10.84-22.73-22.64-1.36-11.41,4.72-21.6,14.03-26.35,2.64-1.35,5.78,.62,5.78,3.59v23.04l19.95,11.52c2.58,1.49,2.7,5.18,.21,6.81-4.87,3.18-10.86,4.77-17.23,4.03Z"/></svg>