<?xml version="1.0" encoding="UTF-8"?><svg id="_лой_1" xmlns="http://www.w3.org/2000/svg" viewBox="0 0 960 540"><defs><style>.cls-1{fill:#4a4797;}.cls-2{fill:#824896;}.cls-3{fill:#fff;opacity:.68;}.cls-4{fill:#e72168;}</style></defs><polygon class="cls-3" points="479.99 270.01 331.67 540 197.86 540 479.99 270.01"/><polygon class="cls-2" points="762.13 0 480 269.99 628.32 0 762.13 0"/><polygon class="cls-3" points="479.99 270 479.99 270.01 0 540 0 357.73 479.99 270"/><polygon class="cls-3" points="960 0 960 182.27 480 270 960 0"/><polygon class="cls-3" points="479.99 270 0 270 0 182.27 479.99 270"/><polygon class="cls-4" points="960 270 960 357.73 480 270 960 270"/><polygon class="cls-3" points="479.99 269.99 0 0 197.86 0 479.99 269.99"/><polygon class="cls-1" points="960 540 762.13 540 480 270.01 480 270 960 540"/><polygon class="cls-3" points="480 0 480 270 479.99 270 479.99 269.99 331.67 0 480 0"/><polygon class="cls-3" points="628.32 540 480 540 480 270.01 628.32 540"/></svg>