<?xml version="1.0" encoding="UTF-8"?><svg id="a" xmlns="http://www.w3.org/2000/svg" viewBox="0 0 128 128"><defs><style>.b{fill:#fff;}</style></defs><path class="b" d="M44.8,86.32c-6.27,0-11.31-2.04-15.11-6.12-3.8-4.08-5.7-9.46-5.7-16.14s1.9-12.39,5.7-16.38c3.8-4,8.84-5.99,15.11-5.99,5.2,0,9.48,1.26,12.85,3.78,3.37,2.52,6.25,6.53,8.64,12.02h-4.59c2.39-5.49,5.28-9.5,8.64-12.02,3.37-2.52,7.65-3.78,12.85-3.78,6.27,0,11.31,2,15.11,5.99,3.8,4,5.7,9.46,5.7,16.38s-1.9,12.06-5.7,16.14c-3.8,4.08-8.83,6.12-15.11,6.12-5.2,0-9.48-1.26-12.85-3.78s-6.25-6.51-8.64-11.96h4.59c-2.4,5.45-5.28,9.44-8.64,11.96s-7.65,3.78-12.85,3.78Zm3.75-10.33c3.21,0,5.67-1.32,7.38-3.96s2.95-6.02,3.71-10.11v4.37c-.76-4.3-2.01-7.78-3.75-10.42s-4.18-3.96-7.34-3.96-5.62,1.1-7.53,3.29c-1.91,2.19-2.87,5.16-2.87,8.88s.96,6.45,2.87,8.64c1.91,2.19,4.42,3.29,7.53,3.29Zm30.82,0c3.16,0,5.68-1.1,7.57-3.29,1.89-2.19,2.83-5.07,2.83-8.64s-.94-6.69-2.83-8.88c-1.89-2.19-4.41-3.29-7.57-3.29s-5.67,1.32-7.38,3.96c-1.71,2.64-2.94,6.12-3.71,10.42v-4.37c.76,4.1,2,7.47,3.71,10.11,1.71,2.64,4.17,3.96,7.38,3.96Z"/></svg>